<svg width="162" height="141" viewBox="0 0 162 141" fill="none" xmlns="http://www.w3.org/2000/svg">
<path d="M55.8633 15.1625C52.3931 11.5199 48.1333 8.72415 43.4181 6.99439C38.7026 5.26459 33.6595 4.6477 28.6838 5.19195C23.708 5.73623 18.9345 7.42692 14.7371 10.1316C10.5398 12.8363 7.03251 16.4816 4.49007 20.7819C1.94763 25.0822 0.439019 29.9209 0.08235 34.919C-0.274288 39.9172 0.530692 44.9388 2.43431 49.591C4.33789 54.2432 7.28839 58.3997 11.0547 61.7345C14.8211 65.0693 19.301 67.4925 24.144 68.8137C26.4989 69.4445 28.6775 69.4576 31.3099 70.0019L62.2422 74.9233C63.1408 75.07 64.0597 75.0057 64.9257 74.7353C65.792 74.4649 66.5819 73.9961 67.2327 73.3656C67.8835 72.7351 68.3778 71.9605 68.6762 71.1031C68.9744 70.2457 69.0684 69.3288 68.9509 68.4257L65.0644 37.8556C64.8856 35.2443 64.5593 32.644 64.0866 30.0672C62.7123 24.4662 59.8735 19.3213 55.8633 15.1625ZM42.3871 47.7475C40.3648 49.7182 37.7987 51.0397 35.0141 51.5445C32.2295 52.049 29.3515 51.7144 26.7444 50.5825C24.1374 49.4506 21.9187 47.5726 20.3693 45.1861C18.8196 42.7998 18.009 40.0124 18.0397 37.1768C18.0707 34.3415 18.9414 31.5852 20.5425 29.2575C22.1432 26.9298 24.4017 25.1349 27.0323 24.1005C29.6628 23.0661 32.547 22.8386 35.3195 23.4465C38.0922 24.0547 40.6282 25.4708 42.6073 27.5161C45.2538 30.2515 46.7167 33.9172 46.6754 37.7095C46.6343 41.5019 45.0922 45.1115 42.3871 47.7475Z" fill="white"/>
<path d="M31.2966 77.3341C31.3692 77.3341 31.4277 77.3928 31.4277 77.4655V107.951C31.4277 108.252 31.6249 108.518 31.9126 108.605L81.5356 123.575C81.9728 123.707 82.4127 123.379 82.4127 122.922V18.2055C82.4127 17.7479 81.9725 17.4199 81.5356 17.5519L69.0673 21.3162C68.7326 21.4172 68.3768 21.2476 68.2375 20.9261C66.4619 16.8289 64.0012 13.0963 61.0372 9.8194C60.6961 9.44199 60.8575 8.83109 61.3444 8.68457L87.4622 0.820914C87.5933 0.788047 87.7247 0.755213 87.8558 0.722345C87.9869 0.689477 88.118 0.656609 88.249 0.623742C89.1016 0.459404 89.9542 0.459404 90.8064 0.623742C90.9379 0.656609 91.069 0.689477 91.2 0.722345C91.3134 0.750707 91.4265 0.754598 91.5398 0.797431C91.5763 0.81122 91.6124 0.82658 91.6495 0.837843L106.217 5.22504L120.224 9.45004C120.512 9.53684 120.709 9.80247 120.709 10.1037V45.6437C120.709 45.972 120.942 46.2536 121.263 46.3147L136.033 49.113C136.453 49.1925 136.841 48.87 136.841 48.4424V15.3451C136.841 14.8878 137.28 14.5599 137.717 14.6912L150.939 18.6674L156.874 20.4421C159.89 21.3626 161.956 24.1234 161.956 27.2784V113.717C161.956 116.872 159.89 119.666 156.874 120.553L91.6263 140.24C90.9705 140.438 90.2491 140.536 89.5606 140.536C88.8721 140.536 88.1837 140.438 87.4949 140.24L22.2472 120.553C19.2308 119.633 17.165 116.872 17.165 113.717V75.6948C17.165 75.217 17.6427 74.8866 18.0925 75.0457C22.225 76.5095 26.6616 77.3341 31.2966 77.3341Z" fill="white"/>
</svg>
