<svg width="698" height="157" viewBox="0 0 698 157" fill="none" xmlns="http://www.w3.org/2000/svg">
<path d="M235.754 79.6265V122.87H214.184V79.6265H207.034V61.5886H214.184V43.1923H235.754V61.5886H248.029V79.6265H235.754ZM253.755 61.5886H275.324V71.6229C277.629 67.9597 280.449 65.1723 283.786 63.261C287.122 61.2702 291.016 60.2746 295.464 60.2746C296.021 60.2746 296.617 60.2746 297.252 60.2746C297.967 60.2746 298.762 60.3541 299.635 60.5135V81.1795C296.775 79.746 293.677 79.0292 290.34 79.0292C285.335 79.0292 281.561 80.5423 279.019 83.5686C276.556 86.5151 275.324 90.8554 275.324 96.5894V122.87H253.755V61.5886ZM327.602 92.05C327.602 94.0408 327.96 95.9125 328.675 97.6645C329.39 99.3369 330.343 100.81 331.535 102.084C332.806 103.358 334.276 104.354 335.944 105.071C337.692 105.788 339.559 106.146 341.544 106.146C343.451 106.146 345.238 105.788 346.907 105.071C348.657 104.354 350.124 103.358 351.316 102.084C352.589 100.81 353.58 99.3369 354.295 97.6645C355.092 95.9921 355.487 94.2002 355.487 92.2889C355.487 90.3776 355.092 88.5858 354.295 86.9134C353.58 85.1615 352.589 83.6481 351.316 82.374C350.124 81.0999 348.657 80.1044 346.907 79.3876C345.238 78.6709 343.451 78.3125 341.544 78.3125C339.559 78.3125 337.692 78.6709 335.944 79.3876C334.276 80.1044 332.806 81.0999 331.535 82.374C330.343 83.6481 329.39 85.1215 328.675 86.7939C327.96 88.3868 327.602 90.1387 327.602 92.05ZM354.772 61.5886H376.461V122.87H354.772V116.061C350.165 121.874 343.927 124.781 336.063 124.781C331.615 124.781 327.523 123.985 323.789 122.392C320.055 120.72 316.798 118.41 314.017 115.463C311.236 112.517 309.051 109.053 307.462 105.071C305.953 101.089 305.198 96.7487 305.198 92.05C305.198 87.67 305.953 83.5287 307.462 79.6265C308.972 75.6445 311.077 72.1803 313.778 69.2338C316.48 66.2873 319.698 63.9777 323.431 62.3053C327.165 60.5534 331.297 59.6773 335.825 59.6773C343.451 59.6773 349.767 62.3453 354.772 67.6809V61.5886ZM434.875 81.4184C431.143 78.8699 427.367 77.5958 423.554 77.5958C421.49 77.5958 419.543 77.9541 417.714 78.6709C415.968 79.3876 414.419 80.4228 413.067 81.7767C411.718 83.0508 410.646 84.6038 409.849 86.4356C409.134 88.1875 408.777 90.1786 408.777 92.4084C408.777 94.5586 409.134 96.5494 409.849 98.3812C410.646 100.133 411.678 101.686 412.948 103.04C414.299 104.314 415.889 105.31 417.714 106.026C419.543 106.743 421.49 107.102 423.554 107.102C427.606 107.102 431.382 105.708 434.875 102.921V121.317C429.553 123.626 424.507 124.781 419.74 124.781C415.294 124.781 411.041 124.024 406.989 122.511C403.019 120.998 399.481 118.848 396.383 116.061C393.366 113.194 390.942 109.809 389.113 105.907C387.288 101.925 386.373 97.5051 386.373 92.6473C386.373 87.7895 387.248 83.3696 388.994 79.3876C390.744 75.3261 393.128 71.8619 396.145 68.9949C399.165 66.0484 402.74 63.7787 406.87 62.1859C411.082 60.5135 415.569 59.6773 420.336 59.6773C425.58 59.6773 430.428 60.7923 434.875 63.0221V81.4184ZM444.797 61.5886H466.367V69.3533C469.305 65.7696 472.284 63.3804 475.305 62.1859C478.321 60.9118 481.859 60.2746 485.911 60.2746C490.201 60.2746 493.854 60.9913 496.874 62.4248C499.973 63.7787 502.595 65.7296 504.74 68.2782C506.486 70.3489 507.678 72.6581 508.315 75.2066C508.948 77.7552 509.268 80.6617 509.268 83.927V122.87H487.698V91.9305C487.698 88.9042 487.46 86.4755 486.983 84.6437C486.585 82.7324 485.829 81.2194 484.719 80.1044C483.766 79.1487 482.693 78.4719 481.501 78.0736C480.31 77.6753 479.036 77.4763 477.688 77.4763C474.031 77.4763 471.212 78.5914 469.227 80.8211C467.32 82.9713 466.367 86.0772 466.367 90.1387V122.87H444.797V61.5886ZM543.119 61.5886V122.87H521.55V61.5886H543.119ZM520.12 38.0557C520.12 36.3833 520.436 34.8303 521.073 33.3969C521.71 31.8837 522.581 30.5697 523.695 29.4548C524.808 28.3399 526.078 27.4638 527.508 26.8267C529.017 26.1896 530.607 25.8711 532.275 25.8711C533.943 25.8711 535.493 26.1896 536.923 26.8267C538.431 27.4638 539.742 28.3399 540.855 29.4548C541.969 30.5697 542.84 31.8837 543.477 33.3969C544.114 34.8303 544.43 36.3833 544.43 38.0557C544.43 39.728 544.114 41.3209 543.477 42.8339C542.84 44.2674 541.969 45.5415 540.855 46.6565C539.742 47.7716 538.431 48.6474 536.923 49.2846C535.493 49.9218 533.943 50.2402 532.275 50.2402C530.607 50.2402 529.017 49.9218 527.508 49.2846C526.078 48.6474 524.808 47.7716 523.695 46.6565C522.581 45.5415 521.71 44.2674 521.073 42.8339C520.436 41.3209 520.12 39.728 520.12 38.0557ZM555.476 61.5886H577.046V69.3533C579.984 65.7696 582.963 63.3804 585.984 62.1859C589.004 60.9118 592.538 60.2746 596.59 60.2746C600.88 60.2746 604.533 60.9913 607.553 62.4248C610.652 63.7787 613.274 65.7296 615.419 68.2782C617.165 70.3489 618.357 72.6581 618.994 75.2066C619.631 77.7552 619.947 80.6617 619.947 83.927V122.87H598.377V91.9305C598.377 88.9042 598.139 86.4755 597.662 84.6437C597.264 82.7324 596.511 81.2194 595.398 80.1044C594.445 79.1487 593.372 78.4719 592.18 78.0736C590.989 77.6753 589.719 77.4763 588.367 77.4763C584.713 77.4763 581.891 78.5914 579.906 80.8211C577.999 82.9713 577.046 86.0772 577.046 90.1387V122.87H555.476V61.5886ZM676.918 83.3297C676.203 80.3033 674.732 77.8746 672.508 76.0428C670.285 74.2111 667.581 73.2953 664.405 73.2953C661.068 73.2953 658.327 74.1715 656.182 75.9234C654.115 77.6753 652.804 80.1443 652.249 83.3297H676.918ZM651.653 95.8726C651.653 105.19 656.022 109.849 664.762 109.849C669.451 109.849 672.985 107.938 675.368 104.115H696.223C692.011 118.131 681.487 125.139 664.643 125.139C659.478 125.139 654.752 124.383 650.462 122.87C646.172 121.277 642.477 119.047 639.379 116.18C636.359 113.313 634.016 109.889 632.348 105.907C630.679 101.925 629.845 97.4655 629.845 92.5278C629.845 87.4311 630.638 82.8519 632.229 78.7903C633.819 74.6493 636.083 71.1451 639.021 68.2782C641.96 65.4112 645.497 63.2211 649.628 61.7081C653.839 60.1152 658.565 59.3189 663.809 59.3189C668.974 59.3189 673.622 60.1152 677.752 61.7081C681.882 63.2211 685.379 65.4511 688.239 68.3976C691.099 71.3441 693.285 74.9677 694.793 79.2682C696.302 83.4891 697.057 88.2673 697.057 93.6029V95.8726H651.653Z" fill="white"/>
<path d="M74.8633 29.1625C71.3931 25.5199 67.1333 22.7242 62.4181 20.9944C57.7026 19.2646 52.6595 18.6477 47.6838 19.192C42.708 19.7362 37.9345 21.4269 33.7371 24.1316C29.5398 26.8363 26.0325 30.4816 23.4901 34.7819C20.9476 39.0822 19.439 43.9209 19.0824 48.919C18.7257 53.9172 19.5307 58.9388 21.4343 63.591C23.3379 68.2432 26.2884 72.3997 30.0547 75.7345C33.8211 79.0693 38.301 81.4925 43.144 82.8137C45.4989 83.4445 47.6775 83.4576 50.3099 84.0019L81.2422 88.9233C82.1408 89.07 83.0597 89.0057 83.9257 88.7353C84.792 88.4649 85.5819 87.9961 86.2327 87.3656C86.8835 86.7351 87.3778 85.9605 87.6762 85.1031C87.9744 84.2457 88.0684 83.3288 87.9509 82.4257L84.0644 51.8556C83.8856 49.2443 83.5593 46.644 83.0866 44.0672C81.7123 38.4662 78.8735 33.3213 74.8633 29.1625ZM61.3871 61.7475C59.3648 63.7182 56.7987 65.0397 54.0141 65.5445C51.2295 66.049 48.3515 65.7144 45.7444 64.5825C43.1374 63.4506 40.9187 61.5726 39.3693 59.1861C37.8196 56.7998 37.009 54.0124 37.0397 51.1768C37.0707 48.3415 37.9414 45.5852 39.5425 43.2575C41.1432 40.9298 43.4017 39.1349 46.0323 38.1005C48.6628 37.0661 51.547 36.8386 54.3195 37.4465C57.0922 38.0547 59.6282 39.4708 61.6073 41.5161C64.2538 44.2515 65.7167 47.9172 65.6754 51.7095C65.6343 55.5019 64.0922 59.1115 61.3871 61.7475Z" fill="white"/>
<path d="M50.2966 91.3341C50.3692 91.3341 50.4277 91.3928 50.4277 91.4655V121.951C50.4277 122.252 50.6249 122.518 50.9126 122.605L100.536 137.575C100.973 137.707 101.413 137.379 101.413 136.922V32.2055C101.413 31.7479 100.972 31.4199 100.536 31.5519L88.0673 35.3162C87.7326 35.4172 87.3768 35.2476 87.2375 34.9261C85.4619 30.8289 83.0012 27.0963 80.0372 23.8194C79.6961 23.442 79.8575 22.8311 80.3444 22.6846L106.462 14.8209C106.593 14.788 106.725 14.7552 106.856 14.7223C106.987 14.6895 107.118 14.6566 107.249 14.6237C108.102 14.4594 108.954 14.4594 109.806 14.6237C109.938 14.6566 110.069 14.6895 110.2 14.7223C110.313 14.7507 110.426 14.7546 110.54 14.7974C110.576 14.8112 110.612 14.8266 110.649 14.8378L125.217 19.225L139.224 23.45C139.512 23.5368 139.709 23.8025 139.709 24.1037V59.6437C139.709 59.972 139.942 60.2536 140.263 60.3147L155.033 63.113C155.453 63.1925 155.841 62.87 155.841 62.4424V29.3451C155.841 28.8878 156.28 28.5599 156.717 28.6912L169.939 32.6674L175.874 34.4421C178.89 35.3626 180.956 38.1234 180.956 41.2784V127.717C180.956 130.872 178.89 133.666 175.874 134.553L110.626 154.24C109.971 154.438 109.249 154.536 108.561 154.536C107.872 154.536 107.184 154.438 106.495 154.24L41.2472 134.553C38.2308 133.633 36.165 130.872 36.165 127.717V89.6948C36.165 89.217 36.6427 88.8866 37.0925 89.0457C41.225 90.5095 45.6616 91.3341 50.2966 91.3341Z" fill="white"/>
</svg>
